<mxfile host="app.diagrams.net" modified="2024-01-10T16:38:46.178Z" agent="Mozilla/5.0 (Macintosh; Intel Mac OS X 10_15_7) AppleWebKit/537.36 (KHTML, like Gecko) Chrome/120.0.0.0 Safari/537.36" version="22.1.17" etag="2wtrp0UqroxmERxbCrAF" type="github">
  <diagram name="페이지-1" id="TRKb3kIrb7OygBsFQ6z1">
    <mxGraphModel>
      <root>
        <mxCell id="0" />
        <mxCell id="1" parent="0" />
      </root>
    </mxGraphModel>
  </diagram>
</mxfile>
